<svg id="Layer_1" data-name="Layer 1" xmlns="http://www.w3.org/2000/svg" viewBox="0 0 314.78 132.39"><defs><style>.cls-1{fill:#fff;}.cls-2{fill:#d0d0d0;}.cls-3{fill:#1d1d1b;}.cls-4{fill:#b2b2b2;}.cls-5{fill:#fdc300;}</style></defs><path class="cls-1" d="M57.57,26.1a49,49,0,0,0,0,97.92H261.65a49,49,0,1,0,0-97.92Z"/><path class="cls-2" d="M261.65,128.19H57.57a53.13,53.13,0,0,1,0-106.26H261.65a53.13,53.13,0,0,1,0,106.26M57.57,26.1a49,49,0,0,0,0,97.92H261.65a49,49,0,1,0,0-97.92Z"/><path class="cls-3" d="M237.17,45.33a14.35,14.35,0,1,0,14.34,14.35,14.34,14.34,0,0,0-14.34-14.35m0,21.71a7.36,7.36,0,1,1,7.36-7.36A7.37,7.37,0,0,1,237.17,67"/><path class="cls-3" d="M171.37,45.33a14.35,14.35,0,1,0,14.35,14.35,14.34,14.34,0,0,0-14.35-14.35m0,21.71a7.36,7.36,0,1,1,7.36-7.36A7.37,7.37,0,0,1,171.37,67"/><path class="cls-3" d="M221.9,67.44a14.61,14.61,0,0,1-2.83.52c-2.45,0-3-.84-3-3.19V51.52H222V46h-5.86V38.15h-6.6L208.1,46h-5c-3.76,0-6.6,2.31-8.42,5.91L192.42,46h-4.73V73.51h8.08v-12c0-6,3.57-9.9,7.8-10H208V65.2c0,6.44,3.31,8.84,8.68,8.84a19.42,19.42,0,0,0,6.18-1Z"/><polyline class="cls-3" points="261.31 54.69 261.31 73.51 253.45 73.51 253.45 45.98 258.22 45.98 259.82 50.18"/><path class="cls-3" d="M259.79,50.21c2.39-2.78,5.66-4.88,9.49-4.88,6.55,0,9.25,5.23,9.25,10.07V73.51h-8.1V55.63c0-2.36-2-3.64-4.09-3.64s-3.73,1.3-5,2.69"/><polygon class="cls-3" points="125.47 36.01 134.48 36.01 146.86 59.59 146.86 36.01 154.33 36.01 154.33 73.51 146.16 73.51 132.94 47.59 132.94 73.51 125.47 73.51 125.47 36.01"/><polygon class="cls-4" points="302.42 21.93 302.42 23.27 300.45 23.27 300.45 29.88 298.92 29.88 298.92 23.27 296.99 23.27 296.99 21.93 302.42 21.93"/><polygon class="cls-4" points="303.52 29.88 303.52 21.93 305.59 21.93 306.97 27.14 308.37 21.93 310.47 21.93 310.47 29.88 309.2 29.88 309.2 23.66 309.17 23.66 307.56 29.88 306.44 29.88 304.82 23.66 304.78 23.66 304.78 29.88 303.52 29.88"/><path class="cls-4" d="M123.22,106.74l1.87-2.91a11.09,11.09,0,0,0,6.58,2.17c2.71,0,4.37-1.23,4.37-3.35,0-2.45-2.1-3.1-5.57-4.3-3.11-1.1-6.16-2.66-6.16-7.07,0-4.12,3.25-6.37,7.63-6.37a12.92,12.92,0,0,1,6.78,1.59l-1.5,3.1A11.08,11.08,0,0,0,132,88.33c-2.44,0-3.9.92-3.9,2.86,0,2.27,1.69,2.84,4.88,3.89s7,2.62,7,7.5c0,4.12-2.95,6.84-8.24,6.84a13.78,13.78,0,0,1-8.51-2.68"/><polygon class="cls-4" points="147.07 85.28 161.24 85.28 161.24 88.58 151.1 88.58 151.1 95.08 159.11 95.08 159.11 98.31 151.1 98.31 151.1 105.82 161.86 105.82 161.86 109.11 147.07 109.11 147.07 85.28"/><path class="cls-4" d="M167.63,97.22c0-7,3.33-12.31,10-12.31a8.74,8.74,0,0,1,7,2.88l-2.36,2.72a5.9,5.9,0,0,0-4.56-2.08c-3.9,0-5.7,3.19-5.7,9.09,0,5.54,1.9,8.34,5.73,8.34a6.66,6.66,0,0,0,4.94-2.51L185,106a8.94,8.94,0,0,1-7.35,3.42c-6.85,0-10-5.22-10-12.2"/><path class="cls-4" d="M191.59,100V85.28h4.06v15.37c0,3.27.81,5.42,4.27,5.42s4.27-2.15,4.27-5.42V85.28h4.11V100c0,5.91-2.27,9.43-8.41,9.43s-8.3-3.52-8.3-9.43"/><path class="cls-4" d="M233.16,109.12h-4.4L224.18,99h-3.76v10.11h-4V85.28h7.78c4.81,0,8.56,1.73,8.56,7a6.19,6.19,0,0,1-4.51,6.2ZM224,95.9c3,0,4.57-1,4.57-3.74s-1.58-3.59-4.33-3.59h-3.83V95.9Z"/><polygon class="cls-4" points="240.06 85.28 254.24 85.28 254.24 88.58 244.09 88.58 244.09 95.08 252.09 95.08 252.09 98.31 244.09 98.31 244.09 105.82 254.84 105.82 254.84 109.11 240.06 109.11 240.06 85.28"/><path class="cls-4" d="M261.65,85.28h6c7.77,0,11.5,4.21,11.5,11.83s-3.79,12-11.29,12h-6.16Zm5.72,20.54c5.56,0,7.46-2.56,7.46-8.71,0-5.39-1.49-8.54-7-8.54h-2.16v17.25Z"/><path class="cls-5" d="M57.33,132.39a57.33,57.33,0,1,1,57.32-57.33,57.4,57.4,0,0,1-57.32,57.33m0-96.52A39.2,39.2,0,1,0,85,47.35,39,39,0,0,0,57.33,35.87"/><rect class="cls-5" x="119.77" y="8.91" width="4.47" height="4.47"/><rect class="cls-5" x="119.77" width="4.47" height="4.48"/><rect class="cls-5" x="107.2" y="13.35" width="4.17" height="4.36"/><rect class="cls-3" x="98.92" y="21.92" width="4.21" height="4.17"/><rect class="cls-3" x="111.37" y="17.71" width="4.68" height="4.2"/><rect class="cls-3" x="94.73" y="17.92" width="4.19" height="4"/><rect class="cls-3" x="107.2" y="21.92" width="4.17" height="4.17"/><rect class="cls-3" x="115.35" y="4.48" width="4.42" height="4.43"/><rect class="cls-3" x="107.2" y="8.91" width="8.15" height="4.44"/><rect class="cls-3" x="103.13" y="13.35" width="4.06" height="8.57"/><path class="cls-3" d="M103.13,26.09V30.3H98.92V26.09h-7v3H88.2v3.74h4.18V37H88.2V32.86H83.75v6.53h-4.2v4.17H76.77v4.19H73.7C70.26,52.87,61.63,68.84,59,75.33,49.61,62.25,42.31,57.06,36.56,55.18c-3.1-.93-6.84,2.45-1.69,7.76C46.71,76,50.43,86.73,54,95.32c1.9,4.54,10.43,5.24,12.14.63A140,140,0,0,1,81.35,66.23V61.57h3.34V57.36H88.2V52.49h4.19v-4.7H88.15V43.52h4.24v4.27h4.15V43.56h3.32v-5.1h3.75V35h3.6V26.09Z"/></svg>